<svg width="88" height="28" viewBox="0 0 88 28" fill="none" xmlns="http://www.w3.org/2000/svg">
<path d="M7.89001 7.54663C8.86092 7.54663 9.5326 7.28184 10.0181 6.88464C10.5035 6.48745 10.7683 5.8696 10.7683 5.11935C10.7683 4.32497 10.5035 3.75125 10.0181 3.30992C9.5326 2.91273 8.78235 2.69207 7.81143 2.69207H3.17754V7.54663H7.81143H7.89001ZM8.0321 0.0441284C9.2678 0.0441284 10.327 0.264789 11.2538 0.661981C12.1805 1.05917 12.8425 1.67702 13.3721 2.42727C13.8576 3.17753 14.1224 4.06017 14.1224 5.11935C14.1224 6.13439 13.8576 7.01704 13.3721 7.81142C12.8867 8.56167 12.1805 9.17953 11.2538 9.57672C10.327 9.97391 9.2678 10.1946 8.0321 10.1946H3.22167V14.0341H0V0.0441284H8.0321Z" fill="white"/>
<path d="M44.6181 5.11935C44.6181 4.32497 44.3533 3.75125 43.8679 3.30992C43.3824 2.91273 42.6321 2.69207 41.6612 2.69207H37.0715V7.54663H41.6612C42.6321 7.54663 43.3824 7.32597 43.8679 6.92878C44.3533 6.48745 44.6181 5.8696 44.6181 5.11935ZM44.6622 13.99L41.9702 10.1063H41.7936H37.0273V13.99H33.8057V0.0441284H41.7936C43.0293 0.0441284 44.0885 0.264789 45.0153 0.66198C45.9421 1.05917 46.604 1.67702 47.1336 2.42727C47.6191 3.17752 47.8839 4.06017 47.8839 5.11935C47.8839 6.13439 47.6191 7.06117 47.1336 7.81142C46.6482 8.56167 45.9421 9.13539 45.0153 9.53259L48.1487 13.99H44.6622Z" fill="white"/>
<path d="M53.7976 2.69207H49.3402H48.4575V0.0441284H49.3402H61.4766H62.3592V2.69207H61.4766H57.0192V13.99H53.7976V2.69207Z" fill="white"/>
<path d="M70.6557 8.56167L68.4491 3.22166L66.2425 8.56167H70.6557ZM71.6708 10.989H65.1833L63.9476 13.99H60.6377L66.8603 0.0441284H70.0379L76.2605 13.99H72.9065L71.6708 10.989Z" fill="white"/>
<path fill-rule="evenodd" clip-rule="evenodd" d="M20.6541 0.0441284H27.0974C29.4806 0.0441284 31.4224 1.98595 31.4224 4.3691V9.66498C31.4224 12.0481 29.4806 13.99 27.0974 13.99H20.6541C18.2709 13.99 16.3291 12.0481 16.3291 9.66498V4.3691C16.3291 1.98595 18.2709 0.0441284 20.6541 0.0441284Z" fill="#00C1FF"/>
<path d="M77.7612 0H80.9829V11.342H87.9999V13.99H77.7612V0Z" fill="white"/>
<path d="M81.5564 23.2578L80.1 24.7583V27.5386H77.5845V16.6379H80.1V21.7131L84.9105 16.6379H87.7349L83.1893 21.4925L87.9997 27.5386H85.0429L81.5564 23.2578Z" fill="white"/>
<path d="M49.9137 16.6379L46.339 27.5386H43.6469L41.2197 20.1685L38.7482 27.5386H36.0562L32.4814 16.6379H35.0853L37.5567 24.3169L40.1164 16.6379H42.4554L44.9709 24.3611L47.4865 16.6379H49.9137Z" fill="white"/>
<path d="M21.0511 25.5085V27.5386H12.5776V16.6379H20.8304V18.668H15.0932V21.007H20.1684V22.993H15.0932V25.5085H21.0511Z" fill="white"/>
<path d="M10.0181 16.6379V27.5386H7.94382L2.47141 20.9187V27.5386H0V16.6379H2.07423L7.5025 23.2578V16.6379H10.0181Z" fill="white"/>
<path d="M72.9949 20.5657C72.9949 19.9478 72.8184 19.4624 72.4212 19.1535C72.024 18.8445 71.4503 18.668 70.7 18.668H67.1253V22.4634H70.7C71.4503 22.4634 72.024 22.2869 72.4212 21.9779C72.7742 21.669 72.9949 21.1835 72.9949 20.5657ZM73.039 27.5386L70.9207 24.4935H70.7883H67.037V27.5386H64.5215V16.6379H70.7883C71.7592 16.6379 72.5977 16.8144 73.3038 17.1234C74.01 17.4323 74.5837 17.9177 74.9367 18.4915C75.3339 19.0652 75.5105 19.7713 75.5105 20.6098C75.5105 21.4042 75.3339 22.1103 74.9367 22.7282C74.5395 23.3019 74.0099 23.7432 73.2597 24.0963L75.687 27.5827H73.039V27.5386Z" fill="white"/>
<path d="M25.5968 18.668H22.1104V16.6379H31.5988V18.668H28.1124V27.5386H25.5968V18.668Z" fill="white"/>
<path fill-rule="evenodd" clip-rule="evenodd" d="M54.5476 18.668C53.9298 18.668 53.4002 19.2858 53.4002 19.992V24.1404C53.4002 24.8465 53.9298 25.4644 54.5476 25.4644H58.9167C59.5346 25.4644 60.0642 24.8465 60.0642 24.1404V19.992C60.0642 19.2858 59.5346 18.668 58.9167 18.668H54.5476ZM54.1946 16.6379H59.2257C61.0792 16.6379 62.6239 18.1384 62.6239 20.0361V24.1845C62.6239 26.0381 61.1233 27.5827 59.2257 27.5827H54.1946C52.341 27.5827 50.7964 26.0822 50.7964 24.1845V20.0361C50.8405 18.1384 52.341 16.6379 54.1946 16.6379Z" fill="white"/>
<path fill-rule="evenodd" clip-rule="evenodd" d="M26.7444 6.48747L21.0955 12.1364L23.5669 8.1645C23.6552 8.0321 23.611 7.85557 23.4786 7.76731C23.4345 7.72317 23.3904 7.72317 23.3021 7.72317H21.1837C21.0955 7.72317 21.0072 7.67904 20.9631 7.63491C20.8307 7.50251 20.8307 7.32598 20.9631 7.23772L26.3914 1.94183L23.9199 5.60482C23.8317 5.73722 23.8758 5.91375 24.0082 6.00201C24.0523 6.04614 24.0965 6.04614 24.1847 6.04614L26.5237 6.00201C26.612 6.00201 26.7003 6.04614 26.7444 6.09027C26.8327 6.17854 26.8327 6.35507 26.7444 6.48747Z" fill="white"/>
</svg>
