<svg width="140" height="23" viewBox="0 0 140 23" fill="none" xmlns="http://www.w3.org/2000/svg">
<g clip-path="url(#clip0_4612_1553)">
<path fill-rule="evenodd" clip-rule="evenodd" d="M32.0781 1.24982H20.1369H20.1284V12.0169H22.1371V8.20833H32.0525C35.1676 7.85365 36.2485 2.42364 32.0781 1.24982ZM31.5764 3.31879H22.2227V6.13935H31.5764C33.0829 5.37087 32.9467 3.87614 31.5764 3.31879Z" fill="white"/>
<path fill-rule="evenodd" clip-rule="evenodd" d="M70.4215 1.24982H57.8931V12.1014H59.9783V8.53768H67.9533L70.9237 12.1014H73.5962L70.6683 8.29278C74.4388 6.69671 73.3493 1.64672 70.4215 1.24982ZM69.6297 3.31885H59.978V6.23231H69.6297C71.5021 5.43005 70.6766 3.56375 69.6297 3.31885Z" fill="white"/>
<path fill-rule="evenodd" clip-rule="evenodd" d="M75.928 1.33429H89.7161V3.24281H83.7838V12.0254H81.8603V3.24281H75.928V1.33429Z" fill="white"/>
<path fill-rule="evenodd" clip-rule="evenodd" d="M94.4736 12.1098H92.3884H92.3799V4.98237C92.7118 3.0654 94.5332 1.29199 96.4737 1.17377H102.908C105.504 1.6889 106.457 3.09074 106.917 4.98237V12.1098H104.832V7.96339H94.4736V12.1098ZM104.832 5.8945H94.4736C94.5758 4.11265 95.8695 3.36951 96.6014 3.36951H102.721C103.215 3.36951 104.806 3.80019 104.832 5.8945Z" fill="white"/>
<path fill-rule="evenodd" clip-rule="evenodd" d="M123.548 10.0409H114.1C112.781 9.99019 111.99 9.22171 111.845 7.81987L111.683 1.24982H109.513V8.13233C109.581 10.6067 111.181 11.8058 113.105 12.1098H123.548V10.0409Z" fill="white"/>
<path fill-rule="evenodd" clip-rule="evenodd" d="M37.8232 22.7925V18.3421H41.1426V19.0937H38.7254V20.0817H40.9724V20.8333H38.7254V22.0409H41.2277V22.7925H37.8232ZM49.7133 22.7925V18.3421H50.5985L52.4369 21.3147V18.3421H53.2795V22.7925H52.3688L50.5559 19.8875V22.7841H49.7133V22.7925ZM61.9439 22.7925V18.3421H65.2632V19.0937H62.846V20.0817H65.093V20.8333H62.846V22.0409H65.3483V22.7925H61.9439ZM73.8254 22.7925V18.3421H75.7319C76.2086 18.3421 76.5575 18.3843 76.7788 18.4603C77.0001 18.5363 77.1703 18.6799 77.298 18.8826C77.4257 19.0852 77.4937 19.3217 77.4937 19.5835C77.4937 19.9128 77.3916 20.1915 77.1959 20.4111C77.0001 20.6306 76.7022 20.7658 76.3107 20.8249C76.5064 20.9347 76.6682 21.0613 76.7958 21.1964C76.9235 21.3316 77.0937 21.5765 77.3065 21.9142L77.8512 22.7841H76.7703L76.1149 21.8129C75.8851 21.4667 75.7234 21.2471 75.6383 21.1627C75.5532 21.0698 75.4596 21.0107 75.366 20.9769C75.2723 20.9431 75.1191 20.9262 74.9063 20.9262H74.7276V22.7841H73.8254V22.7925ZM74.7361 20.2253H75.4085C75.8426 20.2253 76.1149 20.2084 76.2256 20.1746C76.3362 20.1408 76.4213 20.0733 76.4809 19.9888C76.5405 19.8959 76.5745 19.7862 76.5745 19.6595C76.5745 19.5075 76.532 19.3893 76.4554 19.2964C76.3788 19.2035 76.2596 19.1444 76.1149 19.119C76.0383 19.1106 75.8256 19.1021 75.4511 19.1021H74.7446V20.2253H74.7361ZM88.1412 21.1542V20.4026H90.0903V22.176C89.903 22.3618 89.6221 22.5223 89.2647 22.6574C88.9072 22.7925 88.5412 22.8685 88.1752 22.8685C87.7071 22.8685 87.2986 22.7672 86.9496 22.5729C86.6007 22.3787 86.3368 22.1 86.1666 21.7369C85.9879 21.3738 85.9028 20.9769 85.9028 20.5546C85.9028 20.0902 86.0049 19.6764 86.1922 19.3217C86.3879 18.9586 86.6773 18.6883 87.0518 18.4941C87.3412 18.3421 87.6986 18.2745 88.1242 18.2745C88.6774 18.2745 89.12 18.3928 89.4264 18.6208C89.7413 18.8488 89.9371 19.1697 90.0307 19.5835L89.1285 19.7524C89.0689 19.5328 88.9498 19.3639 88.771 19.2372C88.6008 19.1106 88.3795 19.0515 88.1157 19.0515C87.7242 19.0515 87.4092 19.1781 87.1709 19.423C86.9411 19.6764 86.822 20.0395 86.822 20.5293C86.822 21.0529 86.9411 21.4498 87.1794 21.72C87.4178 21.9818 87.7241 22.1169 88.1071 22.1169C88.2944 22.1169 88.4902 22.0831 88.6774 22.0071C88.8646 21.9311 89.0349 21.8467 89.171 21.7369V21.1711H88.1412V21.1542ZM99.8185 22.7925V20.9178L98.1758 18.3421H99.2397L100.295 20.0986L101.325 18.3421H102.372L100.721 20.9262V22.7925H99.8185Z" fill="white"/>
<path fill-rule="evenodd" clip-rule="evenodd" d="M55.5435 6.42653C55.4414 4.88958 54.8711 3.8762 53.9775 3.31885C53.9749 3.31885 53.9778 3.6923 53.9819 4.21845C53.9914 5.42033 54.0071 7.41901 53.9775 7.58347C53.8371 8.381 53.5658 9.00009 53.2195 9.4776C53.3627 9.28565 53.4329 9.15417 53.4329 9.15417C53.3648 10.3787 52.9137 11.3076 51.3732 11.5441H42.5811C42.1811 11.4849 41.6619 11.2485 41.4321 10.9614L50.5609 10.9529L39.917 10.9361C39.1681 10.8009 38.5127 10.1676 38.5127 10.1676C38.5127 11.8143 40.0277 13.3682 41.8491 13.7651H52.1731C54.1051 13.4442 55.3733 11.9579 55.5605 9.95646L55.5435 6.42653ZM50.5734 10.9529C51.5248 10.9075 52.2287 10.4778 52.7001 10.0498C52.0417 10.6294 51.2518 10.8771 50.5734 10.9529Z" fill="#00C2FF"/>
<path fill-rule="evenodd" clip-rule="evenodd" d="M50.5225 0.00842285H40.1559C38.5813 0.14354 37.0153 2.17874 36.9302 3.65658V7.15272C36.9983 8.39411 38.326 10.6827 39.9857 10.9444H50.5821C52.9822 10.7249 54.0035 8.61367 54.0206 7.13583C54.0206 6.8656 54.0035 3.60591 54.0035 3.60591C53.8333 2.00984 52.795 0.118205 50.5225 0.00842285ZM50.1219 2.07745L41.0404 2.0859C40.1468 2.17035 39.4744 2.87971 39.2361 3.83397C39.151 4.16332 39.1339 6.52786 39.219 6.88255C39.4744 7.88748 40.0957 8.57151 41.0489 8.70662H50.1304C51.0921 8.46172 51.5177 7.7777 51.7305 7.09367C51.8922 6.56164 51.8581 3.82553 51.8156 3.69886C51.5092 2.73615 50.7772 2.14501 50.1219 2.07745Z" fill="white"/>
<path fill-rule="evenodd" clip-rule="evenodd" d="M51.3567 2.82904H42.3178C40.7858 2.9726 39.5006 4.07043 39.1687 4.78823L39.1857 6.59542C39.2879 7.60035 39.8326 8.25905 40.6667 8.62217L40.7092 6.86566C40.7943 5.53982 41.7986 4.94869 42.9306 4.90646L51.8418 4.94024C51.8418 4.94024 51.8418 4.06198 51.8163 3.79175C51.7907 3.47929 51.5269 2.9726 51.3567 2.82904Z" fill="#00C2FF"/>
</g>
<defs>
<clipPath id="clip0_4612_1553">
<rect width="140" height="22.8685" fill="white"/>
</clipPath>
</defs>
</svg>
