<svg width="8" height="8" viewBox="0 0 8 8" fill="none" xmlns="http://www.w3.org/2000/svg">
<path fill-rule="evenodd" clip-rule="evenodd" d="M7.79496 0.205034C8.06834 0.478413 8.06834 0.921649 7.79496 1.19503L1.19503 7.79496C0.92165 8.06834 0.478415 8.06835 0.205035 7.79497C-0.0683447 7.52159 -0.068345 7.07835 0.205034 6.80497L6.80496 0.205035C7.07834 -0.0683447 7.52158 -0.068345 7.79496 0.205034Z" fill="#64FCD7"/>
<path fill-rule="evenodd" clip-rule="evenodd" d="M0.205035 0.205035C0.478414 -0.0683449 0.92165 -0.0683449 1.19503 0.205035L7.79496 6.80496C8.06834 7.07834 8.06834 7.52158 7.79496 7.79496C7.52158 8.06834 7.07834 8.06834 6.80496 7.79496L0.205035 1.19503C-0.0683449 0.92165 -0.0683449 0.478414 0.205035 0.205035Z" fill="#64FCD7"/>
</svg>
