<svg width="20" height="18" viewBox="0 0 20 18" fill="none" xmlns="http://www.w3.org/2000/svg">
<path fill-rule="evenodd" clip-rule="evenodd" d="M19.1853 7.1713L19.1879 10.7942C19.1624 11.1393 19.1295 11.484 19.0892 11.8281C19.0219 12.4035 18.5542 12.8677 17.9668 12.9333C16.127 13.139 14.2232 13.139 12.3835 12.9333C11.7961 12.8677 11.3283 12.4035 11.261 11.8281C11.0412 9.9491 11.0412 8.0509 11.261 6.17189C11.3283 5.59648 11.7961 5.13234 12.3835 5.06669C14.2232 4.86107 16.127 4.86107 17.9668 5.06669C18.5542 5.13234 19.0219 5.59648 19.0892 6.17189C19.1281 6.5045 19.1602 6.8377 19.1853 7.1713ZM15.1751 7.5C14.3467 7.5 13.6751 8.1716 13.6751 9C13.6751 9.8284 14.3467 10.5 15.1751 10.5C16.0035 10.5 16.6751 9.8284 16.6751 9C16.6751 8.1716 16.0035 7.5 15.1751 7.5Z" fill="url(#paint0_linear_4871_2069)"/>
<path d="M18.5788 3.03973C18.7343 3.30899 18.4425 3.61051 18.1335 3.57597C16.183 3.35798 14.1674 3.35798 12.2169 3.57597C10.9476 3.71784 9.92103 4.71738 9.77133 5.99764C9.53803 7.9924 9.53803 10.0076 9.77133 12.0024C9.92103 13.2826 10.9476 14.2822 12.2169 14.4241C14.1674 14.642 16.183 14.642 18.1335 14.4241C18.4445 14.3893 18.7388 14.6929 18.5818 14.9637C17.8032 16.3065 16.4151 17.2437 14.802 17.4134L14.1502 17.482C10.8393 17.8304 7.49991 17.8074 4.19416 17.4135L3.76221 17.362C1.98009 17.1497 0.568045 15.7573 0.330675 13.9784C-0.110225 10.6741 -0.110225 7.3259 0.330675 4.02166C0.568045 2.2427 1.98009 0.850338 3.76221 0.637978L4.19415 0.586508C7.4999 0.192578 10.8393 0.169608 14.1502 0.518008L14.802 0.586608C16.4164 0.756488 17.8023 1.6951 18.5788 3.03973Z" fill="url(#paint1_linear_4871_2069)"/>
<defs>
<linearGradient id="paint0_linear_4871_2069" x1="11.307" y1="2.91121" x2="15.9378" y2="15.9778" gradientUnits="userSpaceOnUse">
<stop stop-color="#00C1FF"/>
<stop offset="1" stop-color="#0E0B0F"/>
</linearGradient>
<linearGradient id="paint1_linear_4871_2069" x1="0.485339" y1="-4" x2="9.80129" y2="24.3394" gradientUnits="userSpaceOnUse">
<stop stop-color="#00C1FF"/>
<stop offset="1" stop-color="#0E0B0F"/>
</linearGradient>
</defs>
</svg>
