<svg width="18" height="18" viewBox="0 0 18 18" fill="none" xmlns="http://www.w3.org/2000/svg">
<rect width="18" height="18" rx="9" fill="url(#paint0_linear_4871_2066)"/>
<path d="M8.676 10.492V9.988C8.676 9.604 8.748 9.292 8.892 9.052C9.044 8.812 9.3 8.608 9.66 8.44L9.924 8.32C10.308 8.152 10.608 7.96 10.824 7.744C11.04 7.528 11.148 7.228 11.148 6.844C11.148 6.564 11.076 6.328 10.932 6.136C10.788 5.944 10.592 5.796 10.344 5.692C10.096 5.588 9.812 5.536 9.492 5.536C9.172 5.536 8.876 5.592 8.604 5.704C8.34 5.808 8.128 5.972 7.968 6.196C7.808 6.42 7.728 6.7 7.728 7.036V7.372H6.456V7.036C6.456 6.492 6.588 6.024 6.852 5.632C7.124 5.24 7.488 4.944 7.944 4.744C8.4 4.536 8.916 4.432 9.492 4.432C10.06 4.432 10.564 4.536 11.004 4.744C11.444 4.952 11.788 5.236 12.036 5.596C12.292 5.956 12.42 6.372 12.42 6.844C12.42 7.308 12.332 7.696 12.156 8.008C11.988 8.312 11.768 8.56 11.496 8.752C11.224 8.944 10.936 9.108 10.632 9.244L10.368 9.364C10.224 9.428 10.12 9.508 10.056 9.604C10 9.7 9.972 9.844 9.972 10.036V10.492H8.676ZM9.348 13.168C9.076 13.168 8.844 13.076 8.652 12.892C8.468 12.708 8.376 12.472 8.376 12.184C8.376 11.896 8.468 11.664 8.652 11.488C8.844 11.304 9.076 11.212 9.348 11.212C9.636 11.212 9.872 11.304 10.056 11.488C10.24 11.664 10.332 11.896 10.332 12.184C10.332 12.472 10.24 12.708 10.056 12.892C9.872 13.076 9.636 13.168 9.348 13.168Z" fill="#FFFDFD"/>
<defs>
<linearGradient id="paint0_linear_4871_2066" x1="9" y1="0" x2="9" y2="18" gradientUnits="userSpaceOnUse">
<stop stop-color="#282B30"/>
<stop offset="1" stop-color="#7D8696" stop-opacity="0.1"/>
</linearGradient>
</defs>
</svg>
