<svg width="27" height="50" viewBox="0 0 27 50" fill="none" xmlns="http://www.w3.org/2000/svg">
<path fill-rule="evenodd" clip-rule="evenodd" d="M26.2142 22.4359L0.756357 50L11.9726 30.5289C12.3415 29.8878 12.194 28.9263 11.5298 28.5256C11.3085 28.3654 11.0871 28.2853 10.7919 28.2853L1.34668 28.3654C0.977729 28.3654 0.608775 28.2051 0.387402 27.9647C-0.129134 27.4038 -0.129134 26.4423 0.387402 25.8814L24.8122 0L13.7436 17.8686C13.3008 18.5096 13.5222 19.391 14.1125 19.8718C14.3339 20.0321 14.6291 20.1122 14.8504 20.1122L25.3287 19.9519C25.6977 19.9519 26.0667 20.1122 26.288 20.3526C26.8046 20.9936 26.8046 21.875 26.2142 22.4359Z" fill="#00C1FF"/>
</svg>
