<svg width="14" height="14" viewBox="0 0 14 14" fill="none" xmlns="http://www.w3.org/2000/svg">
<path d="M14 7C14 10.866 10.866 14 7 14C3.13401 14 0 10.866 0 7C0 3.13401 3.13401 0 7 0C10.866 0 14 3.13401 14 7Z" fill="#63E3FF"/>
<path d="M13.087 7.00016C13.087 10.3619 10.3618 13.0871 7.00004 13.0871C3.63831 13.0871 0.913086 10.3619 0.913086 7.00016C0.913086 3.63843 3.63831 0.913208 7.00004 0.913208C10.3618 0.913208 13.087 3.63843 13.087 7.00016Z" fill="#1B538B"/>
<path fill-rule="evenodd" clip-rule="evenodd" d="M9.35238 6.53168L4.70355 11.5651L6.75173 8.00953C6.8191 7.89247 6.79215 7.71688 6.67088 7.64372C6.63045 7.61446 6.59003 7.59983 6.53613 7.59983L4.81135 7.61446C4.74397 7.61446 4.6766 7.58519 4.63617 7.5413C4.54185 7.43887 4.54185 7.26329 4.63617 7.16086L9.09635 2.43469L7.07512 5.69765C6.99427 5.81471 7.0347 5.97566 7.1425 6.06346C7.18292 6.09272 7.23682 6.10735 7.27725 6.10735L9.19068 6.07809C9.25805 6.07809 9.32543 6.10735 9.36585 6.15125C9.46018 6.2683 9.46018 6.42926 9.35238 6.53168Z" fill="white"/>
</svg>
