<svg width="24" height="24" viewBox="0 0 24 24" fill="none" xmlns="http://www.w3.org/2000/svg">
<path d="M22 12C22 17.5228 17.5228 22 12 22C6.47715 22 2 17.5228 2 12C2 6.47715 6.47715 2 12 2C17.5228 2 22 6.47715 22 12Z" fill="white"/>
<path fill-rule="evenodd" clip-rule="evenodd" d="M15.3605 11.3309L8.71928 18.5215L11.6453 13.4421C11.7415 13.2749 11.703 13.024 11.5298 12.9195C11.472 12.8777 11.4143 12.8568 11.3373 12.8568L8.87328 12.8777C8.77703 12.8777 8.68078 12.8359 8.62303 12.7732C8.48829 12.6269 8.48829 12.376 8.62303 12.2297L14.9947 5.47803L12.1072 10.1394C11.9918 10.3066 12.0495 10.5366 12.2035 10.662C12.2612 10.7038 12.3382 10.7247 12.396 10.7247L15.1295 10.6829C15.2257 10.6829 15.322 10.7247 15.3797 10.7874C15.5145 10.9546 15.5145 11.1845 15.3605 11.3309Z" fill="#042029"/>
</svg>
